<svg width="20" height="20" viewBox="0 0 20 20" fill="none" xmlns="http://www.w3.org/2000/svg">
<path d="M10.0004 3.82922C9.09239 2.9943 7.9039 2.53092 6.67039 2.53088C6.01751 2.53156 5.3712 2.66135 4.76867 2.91277C4.16614 3.1642 3.61928 3.5323 3.15956 3.99588C1.19872 5.96505 1.19956 9.04505 3.16122 11.0059L9.27122 17.1159C9.41289 17.365 9.68622 17.5259 10.0004 17.5259C10.1294 17.5246 10.2563 17.4931 10.3709 17.4339C10.4855 17.3748 10.5847 17.2895 10.6604 17.185L16.8396 11.0059C18.8012 9.04422 18.8012 5.96505 16.8379 3.99255C16.3784 3.52981 15.832 3.16246 15.23 2.91162C14.6281 2.66078 13.9825 2.53138 13.3304 2.53088C12.0969 2.53109 10.9085 2.99444 10.0004 3.82922ZM15.6596 5.17088C16.9621 6.48005 16.9629 8.52505 15.6612 9.82755L10.0004 15.4884L4.33956 9.82755C3.03789 8.52505 3.03872 6.48005 4.33789 5.17422C4.97122 4.54422 5.79956 4.19755 6.67039 4.19755C7.54122 4.19755 8.36622 4.54422 8.99456 5.17255L9.41122 5.58922C9.48855 5.66667 9.58038 5.72812 9.68148 5.77005C9.78258 5.81197 9.89095 5.83355 10.0004 5.83355C10.1098 5.83355 10.2182 5.81197 10.3193 5.77005C10.4204 5.72812 10.5122 5.66667 10.5896 5.58922L11.0062 5.17255C12.2662 3.91505 14.4012 3.91838 15.6596 5.17088Z" fill="white"/>
</svg>
