<svg width="20" height="20" viewBox="0 0 20 20" fill="none" xmlns="http://www.w3.org/2000/svg">
<path d="M18.1853 6.1925C18.1087 6.08173 18.0063 5.99119 17.887 5.92864C17.7677 5.86608 17.635 5.83338 17.5003 5.83334H6.11116L5.14949 3.525C5.0234 3.22102 4.80988 2.96133 4.53601 2.77885C4.26214 2.59636 3.94025 2.49932 3.61116 2.5H1.66699V4.16667H3.61116L7.56449 13.6542C7.62781 13.806 7.73464 13.9356 7.87151 14.0268C8.00839 14.118 8.16919 14.1667 8.33366 14.1667H15.0003C15.3478 14.1667 15.6587 13.9508 15.7812 13.6267L18.2812 6.96C18.3284 6.83385 18.3444 6.69813 18.3277 6.56446C18.311 6.43079 18.2621 6.30316 18.1853 6.1925ZM14.4228 12.5H8.88949L6.80616 7.5H16.2978L14.4228 12.5Z" fill="#000201"/>
<path d="M8.75 17.5C9.44036 17.5 10 16.9404 10 16.25C10 15.5596 9.44036 15 8.75 15C8.05964 15 7.5 15.5596 7.5 16.25C7.5 16.9404 8.05964 17.5 8.75 17.5Z" fill="#000201"/>
<path d="M14.583 17.5C15.2734 17.5 15.833 16.9404 15.833 16.25C15.833 15.5596 15.2734 15 14.583 15C13.8927 15 13.333 15.5596 13.333 16.25C13.333 16.9404 13.8927 17.5 14.583 17.5Z" fill="#000201"/>
</svg>
